HIERARCHY
ROOT Hips
{
	OFFSET 0.00000 0.00000 0.00000
	CHANNELS 6 Xposition Yposition Zposition Zrotation Yrotation Xrotation 
	JOINT LHipJoint
	{
		OFFSET 0 0 0
		CHANNELS 3 Zrotation Yrotation Xrotation
		JOINT LeftUpLeg
		{
			OFFSET 1.57358 -1.76629 0.73362
			CHANNELS 3 Zrotation Yrotation Xrotation
			JOINT LeftLeg
			{
				OFFSET 2.40600 -6.61045 0.00000
				CHANNELS 3 Zrotation Yrotation Xrotation
				JOINT LeftFoot
				{
					OFFSET 2.66168 -7.31291 0.00000
					CHANNELS 3 Zrotation Yrotation Xrotation
					JOINT LeftToeBase
					{
						OFFSET 0.20870 -0.57341 2.12506
						CHANNELS 3 Zrotation Yrotation Xrotation
						End Site
						{
							OFFSET 0.00000 -0.00000 1.10557
						}
					}
				}
			}
		}
	}
	JOINT RHipJoint
	{
		OFFSET 0 0 0
		CHANNELS 3 Zrotation Yrotation Xrotation
		JOINT RightUpLeg
		{
			OFFSET -1.49299 -1.76629 0.73362
			CHANNELS 3 Zrotation Yrotation Xrotation
			JOINT RightLeg
			{
				OFFSET -2.43663 -6.69460 0.00000
				CHANNELS 3 Zrotation Yrotation Xrotation
				JOINT RightFoot
				{
					OFFSET -2.62959 -7.22474 0.00000
					CHANNELS 3 Zrotation Yrotation Xrotation
					JOINT RightToeBase
					{
						OFFSET -0.25784 -0.70841 2.21862
						CHANNELS 3 Zrotation Yrotation Xrotation
						End Site
						{
							OFFSET -0.00000 -0.00000 1.16452
						}
					}
				}
			}
		}
	}
	JOINT LowerBack
	{
		OFFSET 0 0 0
		CHANNELS 3 Zrotation Yrotation Xrotation
		JOINT Spine
		{
			OFFSET -0.00034 2.12399 -0.25450
			CHANNELS 3 Zrotation Yrotation Xrotation
			JOINT Spine1
			{
				OFFSET 0.05594 2.14379 -0.03318
				CHANNELS 3 Zrotation Yrotation Xrotation
				JOINT Neck
				{
					OFFSET 0 0 0
					CHANNELS 3 Zrotation Yrotation Xrotation
					JOINT Neck1
					{
						OFFSET -0.09835 1.62725 0.24211
						CHANNELS 3 Zrotation Yrotation Xrotation
						JOINT Head
						{
							OFFSET 0.10849 1.66041 -0.22648
							CHANNELS 3 Zrotation Yrotation Xrotation
							End Site
							{
								OFFSET 0.04385 1.68267 -0.10541
							}
						}
					}
				}
				JOINT LeftShoulder
				{
					OFFSET 0 0 0
					CHANNELS 3 Zrotation Yrotation Xrotation
					JOINT LeftArm
					{
						OFFSET 3.29108 0.79398 -0.68179
						CHANNELS 3 Zrotation Yrotation Xrotation
						JOINT LeftForeArm
						{
							OFFSET 5.15310 -0.00000 -0.00000
							CHANNELS 3 Zrotation Yrotation Xrotation
							JOINT LeftHand
							{
								OFFSET 3.75138 -0.00000 -0.00000
								CHANNELS 3 Zrotation Yrotation Xrotation
								JOINT LeftFingerBase
								{
									OFFSET 0 0 0
									CHANNELS 3 Zrotation Yrotation Xrotation
									JOINT LeftHandIndex1
									{
										OFFSET 0.52917 -0.00000 0.00000
										CHANNELS 3 Zrotation Yrotation Xrotation
										End Site
										{
											OFFSET 0.42663 -0.00000 0.00000
										}
									}
								}
								JOINT LThumb
								{
									OFFSET 0 0 0
									CHANNELS 3 Zrotation Yrotation Xrotation
									End Site
									{
										OFFSET 0.43315 -0.00000 0.43315
									}
								}
							}
						}
					}
				}
				JOINT RightShoulder
				{
					OFFSET 0 0 0
					CHANNELS 3 Zrotation Yrotation Xrotation
					JOINT RightArm
					{
						OFFSET -3.07414 1.06285 -0.44338
						CHANNELS 3 Zrotation Yrotation Xrotation
						JOINT RightForeArm
						{
							OFFSET -5.29613 -0.00000 0.00000
							CHANNELS 3 Zrotation Yrotation Xrotation
							JOINT RightHand
							{
								OFFSET -3.76144 -0.00000 -0.00000
								CHANNELS 3 Zrotation Yrotation Xrotation
								JOINT RightFingerBase
								{
									OFFSET 0 0 0
									CHANNELS 3 Zrotation Yrotation Xrotation
									JOINT RightHandIndex1
									{
										OFFSET -0.74732 -0.00000 0.00000
										CHANNELS 3 Zrotation Yrotation Xrotation
										End Site
										{
											OFFSET -0.60251 -0.00000 0.00000
										}
									}
								}
								JOINT RThumb
								{
									OFFSET 0 0 0
									CHANNELS 3 Zrotation Yrotation Xrotation
									End Site
									{
										OFFSET -0.61171 -0.00000 0.61171
									}
								}
							}
						}
					}
				}
			}
		}
	}
}
MOTION
Frames: 10
Frame Time: .0083333
2.3491 17.2548 -30.5211 0 0 0 0 0 0 -21 0 0 0 0 0 0 0 0 0 0 0 0 0 0 21 0 0 0 0 0 0 0 0 0 0 0 0 0 0 0 0 0 0 0 0 0 0 -16 0 0 21 0 0 11 0 0 0 -8 0 0 0 0 0 0 0 0 0 0 0 0 0 0 0 0 0 0 0 0 8 0 0 0 0 0 0 0 0 0 0 0 0 0 0 0 0 0
2.3491 17.2548 -30.5211 5.0566 1.8094 -0.4592 0.0000 0.0000 0.0000 -27.1078 0.0012 13.0465 2.3307 9.5233 27.4464 -0.2214 -8.7071 0.4140 1.3014 -7.2273 -20.3905 0.0000 0.0000 0.0000 14.5857 11.1140 -24.2896 -1.2345 -7.0460 19.8518 -0.0670 -2.3892 4.6424 -0.1229 -2.2602 6.2254 -6.0189 -1.8601 6.6911 1.6349 -2.8884 -0.0933 5.3583 -1.3189 -3.4705 -9.7209 -2.8676 -15.2385 5.9684 -2.9166 20.1663 3.3087 -1.4789 9.0776 0.0000 0.0000 0.0000 -86.4270 -6.3454 19.2897 18.0389 -28.2069 -4.5676 -0.0000 -0.0000 7.0576 16.4528 31.5658 8.7879 -7.1250 0.0000 -0.0000 -18.3137 61.6957 -7.5810 0.0000 0.0000 0.0000 89.5510 -9.2078 -8.0758 -10.0996 16.8953 -1.5038 0.0000 0.0000 23.7105 -17.1452 6.0998 -1.8776 7.1250 -0.0000 -0.0000 7.0808 -23.6073 3.6797
2.3297 17.2620 -30.3105 4.5353 1.6842 -0.5898 0.0000 0.0000 0.0000 -26.4320 -0.3757 11.8797 2.8148 10.3891 30.2462 -0.2204 -8.3009 3.4743 1.2394 -7.0595 -19.8917 0.0000 0.0000 0.0000 15.5028 10.7221 -24.3236 -1.4065 -7.5016 21.2101 -0.0626 -1.7623 4.4429 -0.1657 -2.6222 7.2286 -8.7562 -4.5703 7.4752 4.8991 -6.7380 -2.9158 10.9705 -2.9093 -5.6917 -14.2742 0.7942 -6.6105 4.9395 2.1023 18.3826 4.1121 0.4370 6.5017 -0.0000 0.0000 0.0000 -92.1895 0.9197 9.7545 19.0411 -29.4697 -5.0511 -0.0000 -0.0000 7.7145 16.5401 28.5660 8.0822 -7.1250 0.0000 -0.0000 -16.0468 58.8490 -5.5218 -0.0000 0.0000 0.0000 81.6555 -13.9882 3.0557 -9.8442 16.4955 -1.4304 0.0000 0.0000 22.7906 -17.7026 5.5848 -1.7792 7.1250 -0.0000 -0.0000 6.6847 -24.1236 3.3910
2.3102 17.2671 -30.0994 4.0639 1.2150 -0.7875 0.0000 0.0000 0.0000 -25.7943 -0.3516 10.7853 3.2768 11.1303 32.7205 -0.1504 -7.8096 6.8368 1.1542 -6.8211 -19.1866 0.0000 0.0000 0.0000 16.3717 10.6614 -24.0299 -1.5525 -7.8640 22.3018 -0.0558 -0.6960 4.2689 -0.2585 -3.2710 9.0342 -9.1975 -5.1622 7.8451 5.8784 -7.5703 -3.3284 12.4649 -3.2551 -5.9618 -15.3261 1.7703 -5.9775 4.5474 3.5279 18.2368 4.2244 1.0271 6.2069 0.0000 -0.0000 0.0000 -94.0333 2.2248 6.9844 19.2757 -29.7598 -5.1670 -0.0000 -0.0000 7.5927 16.3108 26.3464 7.3994 -7.1250 0.0000 -0.0000 -14.9509 56.6430 -4.3342 0.0000 -0.0000 0.0000 79.4234 -14.1933 5.6523 -9.6185 16.1406 -1.3670 0.0000 0.0000 23.1940 -17.8974 5.8468 -1.8842 7.1250 -0.0000 -0.0000 6.5324 -23.8438 3.3552
2.2891 17.2823 -29.8858 3.6614 1.1535 -1.0612 0.0000 0.0000 0.0000 -25.1542 -0.5670 9.8013 3.7558 11.8282 35.1268 -0.0580 -7.9535 10.0365 1.1540 -6.8206 -19.1850 0.0000 0.0000 0.0000 17.1119 10.4660 -23.4736 -1.6779 -8.1602 23.2017 -0.0368 0.1329 3.6744 -0.2722 -3.3560 9.2715 -9.6572 -5.7275 8.5562 6.7756 -8.4062 -3.8202 13.9704 -3.5711 -6.4839 -16.3995 2.5849 -5.3608 4.2076 4.7038 18.1232 4.3276 1.5027 5.9454 0.0000 0.0000 0.0000 -95.9329 3.6126 4.8736 19.6670 -30.2390 -5.3626 -0.0000 -0.0000 6.9018 17.0922 29.1621 8.5215 -7.1250 0.0000 -0.0000 -15.8508 59.5511 -5.7199 0.0000 0.0000 0.0000 77.2994 -14.5108 8.4880 -9.6130 16.1319 -1.3654 0.0000 0.0000 22.5551 -17.4994 6.8318 -2.1479 7.1250 -0.0000 -0.0000 6.7996 -22.8335 3.6531
2.2665 17.3104 -29.6744 3.1743 1.3935 -1.3958 0.0000 0.0000 0.0000 -24.3592 -0.9994 8.8033 4.2615 12.5005 37.5262 0.0072 -8.8891 12.8001 1.1829 -6.9025 -19.4270 0.0000 0.0000 0.0000 17.9590 9.9930 -22.7013 -1.7658 -8.3601 23.8132 -0.0198 0.3301 2.8010 -0.2116 -2.9619 8.1727 -9.7794 -6.1824 9.2156 7.4200 -9.0599 -4.1899 14.9871 -3.8184 -6.9523 -17.1869 3.0127 -4.6890 3.9364 5.2777 18.0353 4.3687 1.7110 5.7448 0.0000 -0.0000 0.0000 -97.3236 4.7454 3.5210 19.9866 -30.6262 -5.5245 -0.0000 -0.0000 5.9743 17.8484 31.7317 9.6120 -7.1250 0.0000 -0.0000 -16.9078 62.2038 -7.1829 0.0000 -0.0000 0.0000 75.8385 -14.8764 11.0732 -9.7768 16.3896 -1.4113 0.0000 0.0000 21.4435 -17.2276 6.9963 -2.1630 7.1250 -0.0000 -0.0000 6.9945 -22.6740 3.7851
2.2414 17.3399 -29.4722 2.7350 1.5358 -1.8094 0.0000 0.0000 0.0000 -23.6731 -1.4571 7.7418 4.8093 13.1658 39.9922 0.1942 -8.9417 15.8051 0.9561 -6.2266 -17.4434 0.0000 0.0000 0.0000 18.7943 9.4593 -21.6854 -1.8071 -8.4522 24.0962 -0.0088 0.3164 1.9203 -0.1645 -2.6129 7.2027 -9.0804 -5.9401 9.3367 7.1691 -8.6545 -3.9845 14.2542 -3.6528 -7.0556 -16.7298 2.7001 -4.5941 4.1339 4.7591 18.1392 4.3401 1.4976 5.8131 -0.0000 -0.0000 0.0000 -96.8775 4.8106 4.2742 19.8618 -30.4755 -5.4611 -0.0000 -0.0000 5.7671 18.8406 30.2220 9.7456 -7.1250 0.0000 -0.0000 -14.6750 60.9950 -5.7900 -0.0000 -0.0000 0.0000 76.7419 -14.9447 10.1794 -9.9018 16.5858 -1.4468 0.0000 0.0000 21.6233 -17.4023 7.2220 -2.2564 7.1250 -0.0000 -0.0000 6.8614 -22.4321 3.7502
2.2191 17.3688 -29.2731 2.2498 1.4836 -2.0821 0.0000 0.0000 0.0000 -22.9850 -1.8411 6.3372 5.4171 13.8387 42.5951 0.4921 -8.3330 18.8234 0.7082 -5.3786 -14.9915 0.0000 0.0000 0.0000 19.6770 9.0219 -20.6466 -1.7949 -8.4251 24.0129 -0.0015 0.8289 1.4465 -0.1075 -2.1140 5.8209 -7.1466 -4.7618 8.7441 5.8737 -6.8402 -3.1061 11.3174 -2.9307 -6.6536 -14.6998 1.3351 -5.6630 4.6935 2.7826 18.4009 4.1280 0.7105 6.2793 -0.0000 0.0000 0.0000 -94.2048 3.4210 8.4272 19.3454 -29.8455 -5.2016 -0.0000 -0.0000 5.6283 19.3105 27.5514 9.2062 -7.1250 0.0000 -0.0000 -12.4718 58.4776 -4.1522 -0.0000 0.0000 0.0000 80.4549 -14.2793 5.0075 -9.9162 16.6084 -1.4509 0.0000 0.0000 22.8798 -17.5795 8.9135 -2.8104 7.1250 -0.0000 -0.0000 6.7051 -20.6661 3.9339
2.1956 17.3951 -29.0734 1.6386 0.9593 -2.1837 0.0000 0.0000 0.0000 -22.1047 -1.8071 4.5021 6.0699 14.4957 45.2615 1.1797 -7.5480 24.5363 0.0005 0.1461 0.4015 0.0000 0.0000 0.0000 20.7249 9.0483 -19.6433 -1.7545 -8.3347 23.7355 0.0033 1.2724 1.2806 -0.0801 -1.8251 5.0226 -2.9226 -1.6499 7.6836 2.6547 -2.3461 0.2175 4.6612 -1.0905 -3.8547 -9.7261 -2.7966 -15.6875 5.7453 -2.7329 20.6461 3.2616 -1.4179 9.3086 -0.0000 0.0000 0.0000 -87.9462 -4.4921 17.6445 17.8678 -27.9875 -4.4870 -0.0000 -0.0000 7.3268 16.1801 22.0840 6.2256 -7.1250 0.0000 -0.0000 -13.0129 52.4163 -2.4085 -0.0000 0.0000 0.0000 88.9714 -8.3693 -7.7686 -9.9598 16.6766 -1.4634 0.0000 0.0000 25.3567 -18.0255 6.3718 -2.0683 7.1250 -0.0000 -0.0000 6.4241 -23.2913 3.3810
2.1715 17.4318 -28.8787 1.0380 0.7881 -2.3508 0.0000 0.0000 0.0000 -21.2541 -2.0510 2.7083 6.7553 15.1224 47.9428 1.6404 -7.4892 27.8964 0.1101 2.1390 5.8901 0.0000 0.0000 0.0000 21.7387 8.9137 -18.5404 -1.7037 -8.2195 23.3827 0.0028 1.0302 0.8438 -0.0535 -1.4929 4.1061 -2.4563 -1.6663 7.8737 2.8600 -2.3194 0.0423 4.6235 -1.0740 -4.1566 -9.7801 -2.6702 -15.0189 5.7675 -2.6135 20.5030 3.2926 -1.3713 9.1258 -0.0000 -0.0000 0.0000 -88.1897 -3.7107 17.6428 17.8920 -28.0187 -4.4984 -0.0000 -0.0000 7.0263 16.3520 24.1909 6.8558 -7.1250 0.0000 -0.0000 -13.7904 54.5346 -3.2774 -0.0000 -0.0000 0.0000 88.7285 -8.5265 -6.8793 -10.1057 16.9048 -1.5055 0.0000 0.0000 24.1812 -17.7411 6.0429 -1.9290 7.1250 -0.0000 -0.0000 6.6425 -23.6450 3.4430
